<svg viewBox="0 0 1211 1196" fill="none" xmlns="http://www.w3.org/2000/svg">
<path fill-rule="evenodd" clip-rule="evenodd" d="M1579.88 284.052C1622.29 404.906 1666.33 531.352 1614.27 658.952C1559.69 792.743 1499.44 867.206 1336.99 917.457C1176.8 967.011 1066.58 836.295 904.808 823.251C770.966 812.458 563 917.457 436.129 921.294C309.259 925.131 217.747 904 183.5 758.5C149.253 613 333.426 503.036 480.378 346.136C627.33 189.235 565.59 -12.0717 678.828 -78.3586C795.466 -146.636 936.848 -179.566 1072.66 -201.603C1221.03 -225.68 1265.29 -81.561 1378.12 -13.9411C1492.42 54.5628 1539.95 170.277 1579.88 284.052Z" fill="url(#paint0_linear)"/>
<defs>
<linearGradient id="paint0_linear" x1="248.977" y1="791.737" x2="1250.54" y2="-227.435" gradientUnits="userSpaceOnUse">
<stop stop-color="#1DB954"/>
<stop offset="1" stop-color="#08411C"/>
</linearGradient>
</defs>
</svg>
